<svg width="24" height="24" viewBox="0 0 24 24" fill="none" xmlns="http://www.w3.org/2000/svg">
<mask id="path-1-inside-1" fill="white">
<path fill-rule="evenodd" clip-rule="evenodd" d="M19 5H5V14.2929L8.64645 10.6464L9 10.2929L9.35355 10.6464L17.3536 18.6464L17.7071 19H19V5ZM5 19V15.7071L5.35355 15.3536L9 11.7071L16.2929 19H5ZM5 4H4V5V19V20H5H19H20V19V5V4H19H5ZM17 10.5C17 11.3284 16.3284 12 15.5 12C14.6716 12 14 11.3284 14 10.5C14 9.67157 14.6716 9 15.5 9C16.3284 9 17 9.67157 17 10.5ZM18 10.5C18 11.8807 16.8807 13 15.5 13C14.1193 13 13 11.8807 13 10.5C13 9.11929 14.1193 8 15.5 8C16.8807 8 18 9.11929 18 10.5Z"/>
</mask>
<path d="M5 5V4H4V5H5ZM19 5H20V4H19V5ZM5 14.2929H4V16.7071L5.70711 15L5 14.2929ZM8.64645 10.6464L9.35355 11.3536V11.3536L8.64645 10.6464ZM9 10.2929L9.70711 9.58579L9 8.87868L8.29289 9.58579L9 10.2929ZM9.35355 10.6464L8.64645 11.3536L9.35355 10.6464ZM17.3536 18.6464L18.0607 17.9393L18.0607 17.9393L17.3536 18.6464ZM17.7071 19L17 19.7071L17.2929 20H17.7071V19ZM19 19V20H20V19H19ZM5 15.7071L4.29289 15L4 15.2929V15.7071H5ZM5 19H4V20H5V19ZM5.35355 15.3536L6.06066 16.0607L6.06066 16.0607L5.35355 15.3536ZM9 11.7071L9.70711 11L9 10.2929L8.29289 11L9 11.7071ZM16.2929 19V20H18.7071L17 18.2929L16.2929 19ZM4 4V3H3V4H4ZM4 20H3V21H4V20ZM20 20V21H21V20H20ZM20 4H21V3H20V4ZM5 6H19V4H5V6ZM6 14.2929V5H4V14.2929H6ZM7.93934 9.93934L4.29289 13.5858L5.70711 15L9.35355 11.3536L7.93934 9.93934ZM8.29289 9.58579L7.93934 9.93934L9.35355 11.3536L9.70711 11L8.29289 9.58579ZM10.0607 9.93934L9.70711 9.58579L8.29289 11L8.64645 11.3536L10.0607 9.93934ZM18.0607 17.9393L10.0607 9.93934L8.64645 11.3536L16.6464 19.3536L18.0607 17.9393ZM18.4142 18.2929L18.0607 17.9393L16.6464 19.3536L17 19.7071L18.4142 18.2929ZM19 18H17.7071V20H19V18ZM18 5V19H20V5H18ZM4 15.7071V19H6V15.7071H4ZM4.64645 14.6464L4.29289 15L5.70711 16.4142L6.06066 16.0607L4.64645 14.6464ZM8.29289 11L4.64645 14.6464L6.06066 16.0607L9.70711 12.4142L8.29289 11ZM17 18.2929L9.70711 11L8.29289 12.4142L15.5858 19.7071L17 18.2929ZM5 20H16.2929V18H5V20ZM4 5H5V3H4V5ZM5 5V4H3V5H5ZM5 19V5H3V19H5ZM5 20V19H3V20H5ZM5 19H4V21H5V19ZM19 19H5V21H19V19ZM20 19H19V21H20V19ZM19 19V20H21V19H19ZM19 5V19H21V5H19ZM19 4V5H21V4H19ZM19 5H20V3H19V5ZM5 5H19V3H5V5ZM15.5 13C16.8807 13 18 11.8807 18 10.5H16C16 10.7761 15.7761 11 15.5 11V13ZM13 10.5C13 11.8807 14.1193 13 15.5 13V11C15.2239 11 15 10.7761 15 10.5H13ZM15.5 8C14.1193 8 13 9.11929 13 10.5H15C15 10.2239 15.2239 10 15.5 10V8ZM18 10.5C18 9.11929 16.8807 8 15.5 8V10C15.7761 10 16 10.2239 16 10.5H18ZM15.5 14C17.433 14 19 12.433 19 10.5H17C17 11.3284 16.3284 12 15.5 12V14ZM12 10.5C12 12.433 13.567 14 15.5 14V12C14.6716 12 14 11.3284 14 10.5H12ZM15.5 7C13.567 7 12 8.567 12 10.5H14C14 9.67157 14.6716 9 15.5 9V7ZM19 10.5C19 8.567 17.433 7 15.5 7V9C16.3284 9 17 9.67157 17 10.5H19Z" fill="black" fill-opacity="0.8" mask="url(#path-1-inside-1)"/>
</svg>
