<svg width="24" height="24" viewBox="0 0 24 24" fill="none" xmlns="http://www.w3.org/2000/svg">
<rect x="4.5" y="4.5" width="15" height="15" rx="1.5" stroke="black" stroke-opacity="0.8" stroke-linecap="square"/>
<path d="M10.4126 11.2326C10.3712 11.0983 10.314 10.9782 10.2411 10.8721C10.1699 10.7644 10.0837 10.6724 9.9826 10.5962C9.88317 10.52 9.76882 10.4628 9.63956 10.4247C9.5103 10.3849 9.36944 10.365 9.21697 10.365C8.94354 10.365 8.69993 10.4338 8.48615 10.5713C8.27237 10.7089 8.10417 10.9111 7.98153 11.1779C7.86056 11.443 7.80007 11.7662 7.80007 12.1473C7.80007 12.5318 7.86056 12.8574 7.98153 13.1242C8.10251 13.3911 8.27072 13.5941 8.48615 13.7333C8.70159 13.8708 8.95182 13.9396 9.23686 13.9396C9.49538 13.9396 9.71911 13.8899 9.90803 13.7904C10.0986 13.691 10.2453 13.5501 10.348 13.3679C10.4508 13.1839 10.5021 12.9685 10.5021 12.7215L10.7109 12.7539H9.32884V12.033H11.3945V12.6445C11.3945 13.0803 11.3017 13.4573 11.1161 13.7755C10.9305 14.0937 10.6753 14.339 10.3505 14.5113C10.0257 14.682 9.65282 14.7674 9.23189 14.7674C8.7629 14.7674 8.35109 14.6621 7.99645 14.4517C7.64347 14.2395 7.36754 13.9388 7.16868 13.5493C6.97147 13.1582 6.87287 12.6942 6.87287 12.1573C6.87287 11.7463 6.93087 11.3792 7.04688 11.0561C7.16454 10.7329 7.3286 10.4586 7.53906 10.2333C7.74953 10.0062 7.99645 9.83388 8.27983 9.71622C8.56321 9.5969 8.87145 9.53724 9.20455 9.53724C9.48627 9.53724 9.74893 9.57867 9.99254 9.66153C10.2362 9.74273 10.4524 9.85874 10.6413 10.0095C10.8319 10.1603 10.9885 10.3393 11.1112 10.5465C11.2338 10.7536 11.3142 10.9823 11.3523 11.2326H10.4126ZM12.7885 9.60684V14.6978H11.8663V9.60684H12.7885ZM13.3672 14.6978V9.60684H16.6286V10.3799H14.2894V11.762H16.4049V12.5351H14.2894V14.6978H13.3672Z" fill="black" fill-opacity="0.8"/>
</svg>
