<svg width="24" height="24" viewBox="0 0 24 24" fill="none" xmlns="http://www.w3.org/2000/svg">
<path fill-rule="evenodd" clip-rule="evenodd" d="M13.4 5H10.6V6.314H13.4V5ZM16.9 17.686H17.686V16.9H19V17.686V19H17.686H16.9V17.686ZM6.314 10.6001V13.4H5V10.6001H6.314ZM17.686 7.10008V6.314H16.9V5H17.686H19V6.314V7.10008H17.686ZM17.686 10.6001V13.4H19V10.6001H17.686ZM6.314 7.10008V6.314H7.1V5H6.314H5V6.314V7.10008H6.314ZM5 17.686V16.9H6.314V17.686H7.1V19H6.314H5V17.686ZM13.4 17.686H10.6V19H13.4V17.686Z" fill="black" fill-opacity="0.8"/>
</svg>
