<svg width="24" height="24" viewBox="0 0 24 24" fill="none" xmlns="http://www.w3.org/2000/svg">
<path fill-rule="evenodd" clip-rule="evenodd" d="M14 9.5L12.5385 5.84629L12 4.5L11.4615 5.84629L10 9.5H6.54796H5L6.18159 10.5L9 12.8853L7.93641 16.5599L7.5 18.0676L8.79695 17.1835L12 15L15.195 17.13L16.5 18L16.0493 16.4977L15 13L17.8571 10.5L19 9.5H17.4814H14ZM16.3386 10.5H14H13.323L13.0715 9.87139L12 7.19258L10.9285 9.87139L10.677 10.5H10H7.72955L9.64601 12.1219L10.1408 12.5407L9.96057 13.1633L9.23336 15.6758L11.4367 14.1737L11.9938 13.794L12.5547 14.1679L14.7443 15.6277L14.0422 13.2873L13.8573 12.6711L14.3415 12.2474L16.3386 10.5Z" fill="black" fill-opacity="0.8"/>
</svg>
